<svg id="Capa_1" enable-background="new 0 0 512 512" height="512" viewBox="0 0 512 512" width="512" xmlns="http://www.w3.org/2000/svg"><g><g><path d="m497 481.877h-105.5l-135.5-78.879-135.5 78.88h-105.5c-8.284 0-15-6.716-15-15v-241c0-8.284 6.716-15 15-15h482c8.284 0 15 6.716 15 15v241c0 8.284-6.716 14.999-15 14.999z" fill="#c8c8e7"/></g><path d="m497 210.877h-241v192.12l135.5 78.88h105.5c8.284 0 15-6.716 15-15v-241c0-8.284-6.716-15-15-15z" fill="#b4b4d9"/><g><path d="m316.25 120.373h-60.25l15-90.25h45.25c8.284 0 15 6.716 15 15v60.25c0 8.284-6.716 15-15 15z" fill="#f91446"/></g><g><path d="m271 165.623h-30v-120.5c0-8.284 6.716-15 15-15h15z" fill="#12254c"/></g><g><path d="m376.5 240.877h-241c-8.284 0-15-6.716-15-15v-60.26c0-8.284 6.716-15 15-15h241c8.284 0 15 6.716 15 15v60.26c0 8.285-6.716 15-15 15z" fill="#27488f"/></g><path d="m376.5 150.618h-120.5v90.26h120.5c8.284 0 15-6.716 15-15v-60.26c0-8.285-6.716-15-15-15z" fill="#1b3b6b"/><g><path d="m391.5 481.877h-60.25l-75.25-45.129-75.25 45.13h-60.25v-271h271z" fill="#f5f5fc"/></g><g><path d="m60.25 331.248c-8.284 0-15-6.716-15-15v-30.125c0-8.284 6.716-15 15-15s15 6.716 15 15v30.125c0 8.284-6.716 15-15 15z" fill="#1b3b6b"/></g><g><path d="m60.25 421.623c-8.284 0-15-6.716-15-15v-30.125c0-8.284 6.716-15 15-15s15 6.716 15 15v30.125c0 8.284-6.716 15-15 15z" fill="#1b3b6b"/></g><g><path d="m451.75 421.623c-8.284 0-15-6.716-15-15v-30.125c0-8.284 6.716-15 15-15s15 6.716 15 15v30.125c0 8.284-6.716 15-15 15z" fill="#12254c"/></g><g><path d="m451.75 331.248c-8.284 0-15-6.716-15-15v-30.125c0-8.284 6.716-15 15-15s15 6.716 15 15v30.125c0 8.284-6.716 15-15 15z" fill="#12254c"/></g><path d="m256 436.748 75.25 45.129h60.25v-271h-135.5z" fill="#ebebf5"/><g><path d="m195.75 331.248c-8.284 0-15-6.716-15-15v-30.125c0-8.284 6.716-15 15-15s15 6.716 15 15v30.125c0 8.284-6.716 15-15 15z" fill="#1b3b6b"/></g><g><path d="m316.25 331.248c-8.284 0-15-6.716-15-15v-30.125c0-8.284 6.716-15 15-15s15 6.716 15 15v30.125c0 8.284-6.716 15-15 15z" fill="#12254c"/></g><g><path d="m256 331.248c-8.284 0-15-6.716-15-15v-30.125c0-8.284 6.716-15 15-15s15 6.716 15 15v30.125c0 8.284-6.716 15-15 15z" fill="#1b3b6b"/></g><path d="m271 316.248v-30.125c0-8.284-6.716-15-15-15v60.125c8.284 0 15-6.716 15-15z" fill="#12254c"/><g><path d="m331.25 481.873h-150.5v-105.375c0-8.284 6.716-15 15-15h120.5c8.284 0 15 6.716 15 15z" fill="#1b3b6b"/></g><path d="m316.25 361.498h-60.25v120.375h75.25v-105.375c0-8.285-6.716-15-15-15z" fill="#12254c"/></g></svg>