<?xml version="1.0" encoding="iso-8859-1"?>
<!-- Generator: Adobe Illustrator 19.0.0, SVG Export Plug-In . SVG Version: 6.00 Build 0)  -->
<svg version="1.1" id="Capa_1" xmlns="http://www.w3.org/2000/svg" xmlns:xlink="http://www.w3.org/1999/xlink" x="0px" y="0px"
	 viewBox="0 0 512 512" style="enable-background:new 0 0 512 512;" xml:space="preserve">
<rect x="30" y="61" style="fill:#00465F;" width="452" height="360"/>
<rect x="256" y="61" style="fill:#002C3C;" width="226" height="360"/>
<rect x="60" y="91" style="fill:#DEECF1;" width="392" height="330"/>
<rect x="256" y="91" style="fill:#C6E2E7;" width="196" height="330"/>
<path style="fill:#00607F;" d="M512,391c0,16.5-6.599,31.5-17.701,42.299C483.5,444.399,468.5,451,452,451H60
	c-32.999,0-60-27.001-60-60H512z"/>
<path style="fill:#00465F;" d="M512,391c0,16.5-6.599,31.5-17.701,42.299C483.5,444.399,468.5,451,452,451H256v-60H512z"/>
<path style="fill:#0095FF;" d="M256,121c-57.9,0-105,47.1-105,105s47.1,105,105,105s105-47.1,105-105S313.9,121,256,121z"/>
<path style="fill:#136EF1;" d="M361,226c0,57.9-47.1,105-105,105V121C313.9,121,361,168.1,361,226z"/>
<path style="fill:#00C0F1;" d="M256,151c-41.4,0-75,33.6-75,75s33.6,75,75,75s75-33.6,75-75S297.4,151,256,151z"/>
<path style="fill:#00ABE9;" d="M256,301V151c41.4,0,75,33.6,75,75S297.4,301,256,301z"/>
<rect x="166" y="211" style="fill:#0095FF;" width="180" height="30"/>
<rect x="256" y="211" style="fill:#136EF1;" width="90" height="30"/>
<path style="fill:#0095FF;" d="M256,121c-31.199,0-45,52.8-45,105s13.801,105,45,105s45-52.8,45-105S287.199,121,256,121z
	 M256,299.5c-5.7-6.901-15-32.1-15-73.5s9.3-66.601,15-73.5c5.7,6.899,15,32.1,15,73.5S261.7,292.599,256,299.5z"/>
<path style="fill:#136EF1;" d="M301,226c0,52.2-13.801,105-45,105v-31.5c5.7-6.901,15-32.1,15-73.5s-9.3-66.601-15-73.5V121
	C287.199,121,301,173.8,301,226z"/>
<g>
</g>
<g>
</g>
<g>
</g>
<g>
</g>
<g>
</g>
<g>
</g>
<g>
</g>
<g>
</g>
<g>
</g>
<g>
</g>
<g>
</g>
<g>
</g>
<g>
</g>
<g>
</g>
<g>
</g>
</svg>
