<svg id="Capa_1" enable-background="new 0 0 512 512" height="512" viewBox="0 0 512 512" width="512" xmlns="http://www.w3.org/2000/svg" xmlns:xlink="http://www.w3.org/1999/xlink"><linearGradient id="SVGID_1_" gradientUnits="userSpaceOnUse" x1="256" x2="256" y1="512" y2=".024"><stop offset="0" stop-color="#5558ff"/><stop offset="1" stop-color="#00c0ff"/></linearGradient><linearGradient id="SVGID_2_" gradientUnits="userSpaceOnUse" x1="226" x2="226" y1="210.933" y2="0"><stop offset="0" stop-color="#addcff"/><stop offset=".5028" stop-color="#eaf6ff"/><stop offset="1" stop-color="#eaf6ff"/></linearGradient><g><g><g><path d="m437 181h15v15c0 8.291 6.709 15 15 15s15-6.709 15-15v-15h15c8.291 0 15-6.709 15-15s-6.709-15-15-15h-15v-15c0-8.291-6.709-15-15-15s-15 6.709-15 15v15h-15c-8.291 0-15 6.709-15 15s6.709 15 15 15zm-317 30 15-31v-30l-15-30v-45c0-8.286-6.716-15-15-15h-30c-8.284 0-15 6.714-15 15l-15 15v90l15 31zm377 30h-226v-189.789l4.395 4.395c5.859 5.859 15.352 5.859 21.211 0s5.859-15.352 0-21.211l-29.982-29.982c-5.79-5.806-15.366-5.898-21.248 0l-29.982 29.982c-5.859 5.859-5.859 15.352 0 21.211s15.352 5.859 21.211 0l4.395-4.395v189.789h-226c-8.291 0-15 6.709-15 15s6.709 15 15 15h226v189.789l-4.395-4.395c-5.859-5.859-15.352-5.859-21.211 0s-5.859 15.352 0 21.211l29.982 29.982c2.814 2.822 6.733 4.413 10.624 4.413s7.81-1.591 10.624-4.413l29.982-29.982c5.859-5.859 5.859-15.352 0-21.211s-15.352-5.859-21.211 0l-4.395 4.395v-189.789h226c8.291 0 15-6.709 15-15s-6.709-15-15-15zm0 60h-45l-15 15v95.816l15 25.184v60c0 8.284 6.716 15 15 15h30c8.284 0 15-6.716 15-15v-181c0-8.286-6.716-15-15-15zm-150 0c-8.284 0-15 6.714-15 15v60c0 8.284 6.716 15 15 15h60v-64.737l-15-25.263z" fill="url(#SVGID_1_)"/></g></g><g><g><path d="m15 211h45v-196c0-8.286-6.716-15-15-15h-30c-8.284 0-15 6.714-15 15v181c0 8.284 6.716 15 15 15zm60 90h-60c-8.291 0-15 6.709-15 15s6.709 15 15 15h60c8.291 0 15-6.709 15-15s-6.709-15-15-15zm317 0v136c0 8.284 6.716 15 15 15h30c8.284 0 15-6.716 15-15v-136zm-227-181h-45v91h45c8.284 0 15-6.716 15-15v-61c0-8.286-6.716-15-15-15z" fill="url(#SVGID_2_)"/></g></g></g></svg>