<svg id="Capa_1" enable-background="new 0 0 512 512" height="512" viewBox="0 0 512 512" width="512" xmlns="http://www.w3.org/2000/svg"><g><path d="m352 18.61v.01l-86 247.38-179.33 182c-53.15-46.91-86.67-115.54-86.67-192 0-141.38 114.62-256 256-256 33.95 0 66.36 6.61 96 18.61z" fill="#fe6a16"/><path d="m266 266 86-247.38v-.01c-29.64-12-62.05-18.61-96-18.61v276.149z" fill="#f91446"/><path d="m512 256c0 52.15-15.6 100.66-42.38 141.12l-124.919-65.917-88.701-75.203 96-237.38c93.82 37.97 160 129.95 160 237.38z" fill="#ffd15e"/><path d="m469.62 397.12c-45.82 69.22-124.39 114.88-213.62 114.88-64.92 0-124.2-24.17-169.33-64l169.33-192z" fill="#0c83fa"/><path d="m469.62 397.12-213.62-141.12v256c89.23 0 167.8-45.66 213.62-114.88z" fill="#3d6dcc"/></g></svg>