<svg id="Capa_1" enable-background="new 0 0 512 512" height="512" viewBox="0 0 512 512" width="512" xmlns="http://www.w3.org/2000/svg"><g><g><g><path d="m406.625 512h-391.625c-8.284 0-15-6.716-15-15v-482c0-8.284 6.716-15 15-15h391.625c8.284 0 15 6.716 15 15v482c0 8.284-6.716 15-15 15z" fill="#f5f5fc"/></g></g><g><path d="m406.625 0h-195.813v512h195.813c8.284 0 15-6.716 15-15v-482c0-8.284-6.716-15-15-15z" fill="#ebebf5"/></g><g><path d="m195.75 210.75h-120.5c-8.284 0-15-6.716-15-15 0-41.493 33.757-75.25 75.25-75.25s75.25 33.757 75.25 75.25c0 8.284-6.716 15-15 15z" fill="#1ac776"/></g><g><path d="m195.75 271h-120.5c-8.284 0-15-6.716-15-15s6.716-15 15-15h120.5c8.284 0 15 6.716 15 15s-6.716 15-15 15z" fill="#1b3b6b"/></g><g><path d="m346.375 271h-90.375c-8.284 0-15-6.716-15-15s6.716-15 15-15h90.375c8.284 0 15 6.716 15 15s-6.716 15-15 15z" fill="#12254c"/></g><g><path d="m346.375 90.25h-90.375c-8.284 0-15-6.716-15-15s6.716-15 15-15h90.375c8.284 0 15 6.716 15 15s-6.716 15-15 15z" fill="#12254c"/></g><g><path d="m346.375 150.5h-90.375c-8.284 0-15-6.716-15-15s6.716-15 15-15h90.375c8.284 0 15 6.716 15 15s-6.716 15-15 15z" fill="#12254c"/></g><g><path d="m346.375 210.75h-90.375c-8.284 0-15-6.716-15-15s6.716-15 15-15h90.375c8.284 0 15 6.716 15 15s-6.716 15-15 15z" fill="#12254c"/></g><g><g><path d="m256 331.25h-180.75c-8.284 0-15-6.716-15-15s6.716-15 15-15h180.75c8.284 0 15 6.716 15 15s-6.716 15-15 15z" fill="#1b3b6b"/></g></g><g><g><path d="m256 391.5h-180.75c-8.284 0-15-6.716-15-15s6.716-15 15-15h180.75c8.284 0 15 6.716 15 15s-6.716 15-15 15z" fill="#1b3b6b"/></g></g><g><g><path d="m256 451.75h-180.75c-8.284 0-15-6.716-15-15s6.716-15 15-15h180.75c8.284 0 15 6.716 15 15s-6.716 15-15 15z" fill="#1b3b6b"/></g></g><g><circle cx="406.625" cy="406.625" fill="#ff9500" r="90.375"/></g><g><path d="m135.5 150.5c-24.882 0-45.125-20.243-45.125-45.125s20.243-45.125 45.125-45.125 45.125 20.243 45.125 45.125-20.243 45.125-45.125 45.125z" fill="#ffdecf"/></g><g><path d="m256 301.25h-45.125v30h45.125c8.284 0 15-6.716 15-15s-6.716-15-15-15z" fill="#12254c"/></g><g><path d="m256 361.5h-45.125v30h45.125c8.284 0 15-6.716 15-15s-6.716-15-15-15z" fill="#12254c"/></g><g><path d="m256 421.75h-45.125v30h45.125c8.284 0 15-6.716 15-15s-6.716-15-15-15z" fill="#12254c"/></g><path d="m497 406.625c0-49.913-40.462-90.375-90.375-90.375v180.75c49.913 0 90.375-40.462 90.375-90.375z" fill="#fe6a16"/><g><path d="m406.625 512c-58.104 0-105.375-47.271-105.375-105.375s47.271-105.375 105.375-105.375 105.375 47.271 105.375 105.375-47.271 105.375-105.375 105.375zm0-180.75c-41.562 0-75.375 33.813-75.375 75.375s33.813 75.375 75.375 75.375 75.375-33.813 75.375-75.375-33.813-75.375-75.375-75.375z" fill="#fe6a16"/></g><path d="m427.838 406.625 7.769-7.769c5.858-5.857 5.858-15.355 0-21.213-5.857-5.857-15.355-5.857-21.213 0l-7.769 7.769-7.769-7.769c-5.857-5.857-15.355-5.857-21.213 0s-5.858 15.355 0 21.213l7.769 7.769-7.769 7.769c-5.858 5.857-5.858 15.355 0 21.213 2.929 2.929 6.768 4.394 10.606 4.394s7.678-1.465 10.606-4.394l7.769-7.769 7.769 7.769c2.929 2.928 6.768 4.393 10.607 4.393s7.678-1.465 10.606-4.394c5.858-5.857 5.858-15.355 0-21.213z" fill="#fe6a16"/><g fill="#f91446"><path d="m482 406.625c0 41.562-33.813 75.375-75.375 75.375v30c58.104 0 105.375-47.271 105.375-105.375s-47.271-105.375-105.375-105.375v30c41.562 0 75.375 33.813 75.375 75.375z"/><path d="m414.394 435.606c2.928 2.929 6.767 4.394 10.606 4.394s7.678-1.465 10.606-4.394c5.858-5.857 5.858-15.355 0-21.213l-7.769-7.769 7.769-7.769c5.858-5.857 5.858-15.355 0-21.213-5.857-5.857-15.355-5.857-21.213 0l-7.769 7.769v42.426z"/></g></g></svg>