<svg id="Capa_1" enable-background="new 0 0 512.007 512.007" height="512" viewBox="0 0 512.007 512.007" width="512" xmlns="http://www.w3.org/2000/svg"><g><g><path d="m256.01 387.043c-72.245 0-131.02-58.775-131.02-131.02s58.775-131.02 131.02-131.02 131.02 58.775 131.02 131.02-58.775 131.02-131.02 131.02z" fill="#cff9ff"/></g><path d="m387.03 256.023c0-72.244-58.775-131.02-131.02-131.02v262.039c72.245.001 131.02-58.774 131.02-131.019z" fill="#96e8ff"/><path d="m256.01 109.501c-80.793 0-146.522 65.729-146.522 146.522s65.729 146.522 146.522 146.522 146.522-65.729 146.522-146.522-65.729-146.522-146.522-146.522zm115.56 131.522h-43.619c-1.484-31.532-7.621-60.926-17.67-83.991-.801-1.837-1.624-3.622-2.466-5.36 34.058 16.977 58.693 50.137 63.755 89.351zm-115.56 131.522c-16.002 0-38.72-39.075-41.919-101.522h83.837c-3.199 62.447-25.916 101.522-41.918 101.522zm-41.919-131.522c3.199-62.447 25.917-101.522 41.919-101.522s38.719 39.075 41.918 101.522zm-9.886-89.351c-.842 1.738-1.665 3.522-2.466 5.359-10.049 23.066-16.186 52.459-17.671 83.992h-43.618c5.063-39.213 29.697-72.374 63.755-89.351zm-63.754 119.351h43.618c1.484 31.532 7.621 60.926 17.671 83.992.8 1.837 1.623 3.622 2.466 5.359-34.059-16.977-58.693-50.137-63.755-89.351zm167.364 89.352c.842-1.738 1.665-3.523 2.466-5.36 10.049-23.065 16.186-52.459 17.67-83.991h43.619c-5.062 39.213-29.697 72.374-63.755 89.351z" fill="#1b3b6b"/><path d="m478.763 153.541c-24.7-53.692-66.939-95.797-120.087-120.201l10.237-4.709c7.526-3.462 10.821-12.37 7.358-19.896-3.462-7.525-12.364-10.821-19.896-7.358l-42.195 19.411c-7.525 3.462-10.82 12.37-7.357 19.896l19.411 42.194c2.528 5.496 7.959 8.734 13.637 8.734 2.097 0 4.229-.442 6.26-1.376 7.525-3.462 10.82-12.37 7.357-19.896l-3.68-7.999c98.535 47.632 146.763 163.611 108.038 268.326-23.792 64.335-77.465 113.881-143.575 132.537-7.973 2.25-12.612 10.537-10.362 18.51 1.866 6.611 7.882 10.93 14.429 10.93 1.349 0 2.72-.184 4.081-.568 36.448-10.285 70.508-29.14 98.496-54.527 28.933-26.243 51.433-59.604 65.068-96.476 22.718-61.431 20.154-128.03-7.22-187.532z" fill="#f91446"/><path d="m205.198 471.324-19.411-42.194c-3.462-7.525-12.364-10.822-19.896-7.358-7.525 3.462-10.82 12.37-7.357 19.896l3.705 8.054c-98.562-47.621-146.808-163.616-108.078-268.345 23.634-63.907 74.662-111.835 140.001-131.495 7.933-2.387 12.429-10.753 10.042-18.686-2.389-7.934-10.756-12.429-18.687-10.042-35.575 10.704-68.772 29.648-96.001 54.783-28.56 26.363-49.922 58.337-63.492 95.034-22.718 61.43-20.154 128.029 7.22 187.531 24.696 53.681 66.922 95.78 120.055 120.186l-10.19 4.688c-7.526 3.462-10.821 12.37-7.358 19.896 2.528 5.496 7.959 8.735 13.637 8.734 2.097 0 4.229-.442 6.26-1.376l42.194-19.411c7.524-3.461 10.819-12.37 7.356-19.895z" fill="#0c83fa"/><path d="m297.928 241.023h-41.918v30h41.918c-3.199 62.447-25.916 101.522-41.918 101.522v30c80.793 0 146.522-65.729 146.522-146.522s-65.729-146.522-146.522-146.522v30c16.002 0 38.719 39.076 41.918 101.522zm73.642 0h-43.619c-1.484-31.532-7.621-60.926-17.67-83.991-.801-1.837-1.624-3.622-2.466-5.36 34.058 16.977 58.693 50.137 63.755 89.351zm-61.289 113.991c10.049-23.065 16.186-52.459 17.67-83.991h43.619c-5.062 39.214-29.696 72.374-63.755 89.351.842-1.737 1.665-3.522 2.466-5.36z" fill="#12254c"/></g></svg>