<?xml version="1.0" encoding="iso-8859-1"?>
<!-- Generator: Adobe Illustrator 19.0.0, SVG Export Plug-In . SVG Version: 6.00 Build 0)  -->
<svg version="1.1" id="Capa_1" xmlns="http://www.w3.org/2000/svg" xmlns:xlink="http://www.w3.org/1999/xlink" x="0px" y="0px"
	 viewBox="0 0 512 512" style="enable-background:new 0 0 512 512;" xml:space="preserve">
<path style="fill:#455A64;" d="M320,0H64C46.368,0,32,14.368,32,32v448c0,17.664,14.368,32,32,32h256c17.664,0,32-14.336,32-32V32
	C352,14.368,337.664,0,320,0z M320,64v352H64V64H320z"/>
<rect x="64" y="64" style="fill:#FAFAFA;" width="256" height="352"/>
<path style="fill:#64B5F6;" d="M480,256H224v-80c0-8.832,7.168-16,16-16h224c8.832,0,16,7.168,16,16V256z"/>
<path style="fill:#2196F3;" d="M480,192v112c0,8.8-7.2,16-16,16H240c-8.8,0-16-7.2-16-16V192l128,64L480,192z"/>
<g>
</g>
<g>
</g>
<g>
</g>
<g>
</g>
<g>
</g>
<g>
</g>
<g>
</g>
<g>
</g>
<g>
</g>
<g>
</g>
<g>
</g>
<g>
</g>
<g>
</g>
<g>
</g>
<g>
</g>
</svg>
