<svg xmlns="http://www.w3.org/2000/svg" xmlns:xlink="http://www.w3.org/1999/xlink" viewBox="0 0 138.51 170.17"><defs><style>.cls-1{fill:url(#linear-gradient);}.cls-2{fill:url(#linear-gradient-2);}.cls-3{fill:url(#linear-gradient-3);}.cls-4{fill:url(#linear-gradient-4);}.cls-5{fill:#00bcd6;}</style><linearGradient id="linear-gradient" x1="8.12" y1="25.58" x2="109.58" y2="151.07" gradientUnits="userSpaceOnUse"><stop offset="0" stop-color="#45cdd4"/><stop offset="0.13" stop-color="#45c5d4"/><stop offset="0.34" stop-color="#45afd4"/><stop offset="0.6" stop-color="#458ad4"/><stop offset="0.89" stop-color="#4659d3"/><stop offset="1" stop-color="#4644d3"/></linearGradient><linearGradient id="linear-gradient-2" x1="1.43" y1="30.99" x2="102.89" y2="156.48" xlink:href="#linear-gradient"/><linearGradient id="linear-gradient-3" x1="38.6" y1="0.94" x2="140.06" y2="126.43" xlink:href="#linear-gradient"/><linearGradient id="linear-gradient-4" x1="44.45" y1="-3.8" x2="145.91" y2="121.69" xlink:href="#linear-gradient"/></defs><g id="Layer_2" data-name="Layer 2"><g id="OBJECTS"><path class="cls-1" d="M25,85.65a9.8,9.8,0,0,0-2.08-.22V54.27a8.72,8.72,0,0,0,8.65-7.38H63.9a6.39,6.39,0,1,0,.82-5.47,6.28,6.28,0,0,0-1,2.7H31.54A8.76,8.76,0,1,0,18,52.76a9,9,0,0,0,2.15,1.06v32A9.93,9.93,0,1,0,25,85.65Z"/><path class="cls-2" d="M97.54,107.68a9.92,9.92,0,0,0-12,9.7H54.38a8.76,8.76,0,0,0-3.84-7.25,8.59,8.59,0,0,0-3.55-1.4V75.14a6.41,6.41,0,1,0-2.76.63v33a8.77,8.77,0,1,0,8.63,13.58,8.33,8.33,0,0,0,1.06-2.16h32a9.92,9.92,0,1,0,11.61-12.47Z"/><path class="cls-3" d="M117.45,33.69a9.93,9.93,0,0,0-4.17,19.41,10.68,10.68,0,0,0,2.09.22V84.68a8.75,8.75,0,0,0-10.51,7.18H73.12a6.34,6.34,0,1,0,.64,2.77h31.11a8.53,8.53,0,0,0,.7,2.31,8.77,8.77,0,1,0,12.57-11.15V52.92a9.92,9.92,0,0,0-.69-19.23Z"/><path class="cls-4" d="M39.73,31.63a9.92,9.92,0,0,0,12-9.7H83.1a8.75,8.75,0,0,0,7.18,10.5V64.17a6.46,6.46,0,0,0-2.52,2.17,6.4,6.4,0,1,0,5.29-2.8V32.43a8.77,8.77,0,1,0-8.64-13.58c-.07.1-.13.21-.19.31H51.35A9.93,9.93,0,1,0,39.73,31.63Z"/><path class="cls-5" d="M3.79,66.19A3.79,3.79,0,1,0,7.58,70,3.79,3.79,0,0,0,3.79,66.19Z"/><path class="cls-5" d="M69.45,6.92a3.46,3.46,0,1,0-3.26-3.66A3.46,3.46,0,0,0,69.45,6.92Z"/><path class="cls-5" d="M137.35,67.1a3.46,3.46,0,1,0,.29,4.89A3.45,3.45,0,0,0,137.35,67.1Z"/><text/></g></g></svg>